<svg width="2982" height="810" viewBox="0 0 2982 810" fill="none" xmlns="http://www.w3.org/2000/svg">
<path d="M939.661 680.632L836.795 756.329H569.912L465.101 689.367L456.366 77.8795L559.233 8.09581H836.795L939.661 77.8795V680.632ZM580.516 133.082V622.609H815.512V133.082H580.516Z" fill="#DB202C"/>
<path d="M1984.25 8.09554V591.561C2056.22 594.909 2128 598.956 2199.58 603.73V727.436C2086.05 719.866 1972.41 714.122 1858.7 710.206V8.09554H1984.25ZM2981.95 8.16541L2818.46 387.197L2981.91 808.991L2981.73 809.066C2934.07 802.286 2886.37 795.836 2838.63 789.717L2746.84 552.984L2654.18 767.742C2610.23 762.885 2566.24 758.305 2522.23 754L2681.6 384.658L2535.64 8.17123H2671.46L2753.18 218.864L2844.05 8.16541H2981.95ZM1427.8 704.075V8.15959H1778.27V132.978H1553.35V294.736H1723.53V418.442H1553.35V704.052L1427.8 704.075ZM283.483 461.426L283.477 8.15377H409.029V759.066C363.133 763.782 317.319 768.807 271.593 774.112L126.202 356.44V792C84.3202 797.45 42.4708 803.149 0.656321 809.096V8.16541H119.972L283.483 461.426ZM2303.15 734.895V8.16541H2428.71V745.266C2386.91 741.539 2345.07 738.098 2303.15 734.895Z" fill="#DB202C"/>
<path d="M975 4H970.683L971.012 8.30444L1024.9 714.304L1025.18 718H1028.89H1139.71H1143.4L1143.69 714.318L1178.42 278.768L1213.14 714.318L1213.43 718H1217.13H1321.11H1324.82L1325.1 714.304L1378.99 8.30444L1379.32 4H1375H1302.89H1299.16L1298.9 7.72647L1264.85 504.59L1228.7 7.70981L1228.43 4H1224.72H1133.63H1129.91L1129.64 7.70981L1093.5 504.59L1059.45 7.72647L1059.19 4H1055.46H975Z" fill="#DB202C" stroke="#DB202C" stroke-width="8"/>
</svg>
